<?xml version="1.0" encoding="UTF-8" standalone="no"?>
<svg width="94px" height="94px" viewBox="0 0 94 94" version="1.1" xmlns="http://www.w3.org/2000/svg" xmlns:xlink="http://www.w3.org/1999/xlink">
    <!-- Generator: Sketch 39.1 (31720) - http://www.bohemiancoding.com/sketch -->
    <title>search</title>
    <desc>Created with Sketch.</desc>
    <defs></defs>
    <g id="Page-1" stroke="none" stroke-width="1" fill="none" fill-rule="evenodd" opacity="0.600000024">
        <g id="search" fill="#000000">
            <path d="M60.7646983,40.8823492 C60.7660524,35.3807694 58.8186018,30.6803781 54.9223465,26.7811755 C51.0647246,22.926501 46.3847256,20.9994425 40.8823492,21.0000001 C35.381088,21.0000001 30.6806968,22.9270586 26.7811755,26.7811755 C22.9270586,30.6806968 21.0000001,35.381088 21.0000001,40.8823492 C20.9994425,46.3847256 22.926501,51.0647246 26.7811755,54.9223465 C30.6803781,58.8186018 35.3807694,60.7660524 40.8823492,60.7646983 C46.3849646,60.7666897 51.0649637,58.8192391 54.9223465,54.9223465 C58.8192391,51.0649637 60.7666897,46.3849646 60.7646983,40.8823492 L60.7646983,40.8823492 L60.7646983,40.8823492 L60.7646983,40.8823492 Z M52.7505822,28.9529398 C56.0526771,32.2520874 57.7044415,36.2285572 57.7058753,40.8823492 C57.7038043,45.5349463 56.0520399,49.491024 52.7505822,52.7505822 C49.491024,56.0520399 45.5349463,57.7038043 40.8823492,57.7058753 C36.2285572,57.7044415 32.2520874,56.0526772 28.9529398,52.7505822 C25.6907529,49.4913426 24.0593807,45.535265 24.0588231,40.8823492 C24.0587434,36.2283182 25.6901156,32.2518484 28.9529398,28.9529398 C32.2518484,25.6901156 36.2283182,24.0587434 40.8823492,24.0588231 C45.535265,24.0593807 49.4913426,25.6907529 52.7505822,28.9529398 L52.7505822,28.9529398 L52.7505822,28.9529398 L52.7505822,28.9529398 Z M72.99999,71.4705785 C73.0014239,71.0467245 72.8484827,70.6796657 72.5411666,70.3694023 L58.4399928,56.2682286 C58.1500419,55.981225 57.7931792,55.8384798 57.3694048,55.8399933 C56.9455508,55.8384798 56.578492,55.981225 56.2682286,56.2682286 C55.981225,56.578492 55.8384798,56.9455508 55.8399933,57.3694048 C55.8384798,57.7931792 55.981225,58.1500419 56.2682286,58.4399928 L70.3694023,72.5411666 C70.6796657,72.8484827 71.0467245,73.0014239 71.4705785,72.99999 C71.894353,73.0014239 72.2512157,72.8484827 72.5411666,72.5411666 C72.8484827,72.2512157 73.0014239,71.894353 72.99999,71.4705785 L72.99999,71.4705785 L72.99999,71.4705785 L72.99999,71.4705785 Z" id="Shape"></path>
        </g>
    </g>
</svg>